<?xml version="1.0" encoding="utf-8"?>
<!-- Generator: Adobe Illustrator 19.0.1, SVG Export Plug-In . SVG Version: 6.00 Build 0)  -->
<!DOCTYPE svg PUBLIC "-//W3C//DTD SVG 1.1//EN" "http://www.w3.org/Graphics/SVG/1.1/DTD/svg11.dtd">
<svg version="1.1" id="Layer_1" xmlns="http://www.w3.org/2000/svg" xmlns:xlink="http://www.w3.org/1999/xlink" x="0px" y="0px"
	 viewBox="-169 298.9 256 245" style="enable-background:new -169 298.9 256 245;" xml:space="preserve">
<style type="text/css">
	.st0{fill:#FFFFFF;}
</style>
<g>
	<path class="st0" d="M63.7,543.3H22.3l2.9-34.9H4.8l-2.9,34.9h-85.8l-2.9-34.9h-20.4l2.9,34.9h-41.5L-169,392l58.2-93.1H28.8
		L87,392L63.7,543.3z M17.2,345.4h-37.4l2.5,17.5h-46.5l2.5-17.5h-37.4l-23.3,46.5l11.6,93.1H28.8L40.5,392L17.2,345.4z M-3.2,454.2
		c-3.2,0-5.8-9.7-5.8-21.6c0-12,2.6-21.6,5.8-21.6c3.2,0,5.8,9.7,5.8,21.6C2.6,444.5,0,454.2-3.2,454.2z M-76.6,456
		c-3.2,0-5.8-9.7-5.8-21.6s2.6-21.6,5.8-21.6c3.2,0,5.8,9.7,5.8,21.6S-73.4,456-76.6,456z"/>
</g>
</svg>
